<svg xmlns="http://www.w3.org/2000/svg" width="298" height="207" viewBox="0 0 298 207">
<g>
<path d="M 0.00 0.00 L 298.00 0.00 L 298.00 207.00 L 0.00 207.00 ZM 152.99 189.75 C153.00,193.91 153.43,197.00 154.00,197.00 C154.55,197.00 155.00,194.51 155.00,191.46 C155.00,177.73 161.01,159.59 170.02,146.15 C183.40,126.17 205.53,110.94 227.00,106.95 C230.57,106.28 234.62,105.38 236.00,104.95 L 238.50 104.16 L 235.71 104.08 C226.91,103.83 206.97,96.40 196.50,89.47 C182.99,80.53 169.40,64.77 162.98,50.61 C159.01,41.85 156.03,30.07 155.31,20.25 C154.98,15.71 154.32,12.00 153.85,12.00 C153.38,12.00 153.00,15.17 153.00,19.05 C153.00,37.27 143.90,59.10 129.98,74.28 C116.00,89.53 99.72,98.81 79.90,102.81 L 70.80 104.65 L 79.54 106.37 C114.69,113.27 142.78,139.93 150.99,174.18 C152.09,178.76 152.99,185.76 152.99,189.75 Z" fill="rgb(0,0,0)"/>
<path d="M 157.11 32.37 C156.47,29.70 155.93,27.10 155.53,24.75 C154.83,20.52 153.00,19.65 153.00,23.55 C153.00,25.46 152.39,28.93 151.45,32.82 C152.46,28.12 153.00,23.48 153.00,19.05 C153.00,15.17 153.38,12.00 153.85,12.00 C154.32,12.00 154.98,15.71 155.31,20.25 C155.59,24.09 156.22,28.23 157.11,32.37 ZM 152.99 189.75 C152.99,185.76 152.09,178.76 150.99,174.18 C152.09,178.76 152.99,183.74 152.99,185.25 C153.01,190.12 154.35,188.37 155.80,182.11 C155.28,185.37 155.00,188.51 155.00,191.46 C155.00,194.51 154.55,197.00 154.00,197.00 C153.43,197.00 153.00,193.91 152.99,189.75 ZM 180.64 133.08 C193.30,119.73 209.56,110.19 227.00,106.95 C210.52,110.02 193.65,119.70 180.64,133.08 ZM 129.98 74.28 C137.64,65.93 143.84,55.57 147.87,44.90 C147.57,45.72 147.27,46.51 146.97,47.24 C140.30,63.62 129.36,77.36 115.55,87.30 C120.63,83.58 125.43,79.25 129.98,74.28 Z" fill="rgb(132,132,132)"/>
<path d="M 152.99 185.25 C152.99,183.74 152.09,178.76 150.99,174.18 C142.78,139.93 114.69,113.27 79.54,106.37 L 70.80 104.65 L 79.90 102.81 C110.34,96.66 135.26,76.02 146.97,47.24 C149.89,40.05 153.00,27.85 153.00,23.55 C153.00,19.65 154.83,20.52 155.53,24.75 C156.92,33.04 160.22,44.52 162.96,50.57 C169.40,64.77 182.98,80.52 196.50,89.47 C206.97,96.40 226.91,103.83 235.71,104.08 L 238.50 104.16 L 236.00 104.95 C234.62,105.38 230.57,106.28 227.00,106.95 C192.97,113.28 163.41,143.59 156.38,179.36 C154.73,187.78 153.01,190.77 152.99,185.25 Z" fill="rgb(253,253,253)"/>
</g>
</svg>